# File created by Blade
# Date/Time:  Wed Apr 08 17:04:14 2015
#---------------------------------------------------------
:version 1.10
:name HOM
:units
  mass 1.0
  length 1.000000
  angle deg
:documentation
     Acclaim Skeleton File
:root
   axis xyz
   order TX TY TZ RX RY RZ
   position 0.000000 0.000000 0.000000
   orientation 0 0 0
:bonedata
   begin
      id 1
      name Spine_dum
      direction 0.000000 1.000000 0.000000
      length 5.893853
      axis 0.0 0.0 0.0 xyz
   end
   begin
      id 2
      name LeftUpLeg_dum
      direction 1.000000 0.000000 0.000000
      length 3.697939
      axis 0.0 0.0 0.0 xyz
   end
   begin
      id 3
      name RightUpLeg_dum
      direction -1.000000 0.000000 0.000000
      length 3.697939
      axis 0.0 0.0 0.0 xyz
   end
   begin
      id 4
      name Spine
      direction 0.000000 1.000000 0.000000
      length 0.000000
      axis 0.0 0.0 0.0 xyz
      dof rx ry rz
   end
   begin
      id 5
      name Spine_dum1
      direction 0.000000 1.000000 0.000000
      length 16.447146
      axis 0.0 0.0 0.0 xyz
   end
   begin
      id 6
      name Spine_dum2
      direction 0.000000 1.000000 0.000000
      length 10.900383
      axis 0.0 0.0 0.0 xyz
   end
   begin
      id 7
      name Spine_dum3
      direction 0.000000 1.000000 0.000000
      length 10.900383
      axis 0.0 0.0 0.0 xyz
   end
   begin
      id 8
      name Head
      direction 0.000000 1.000000 0.000000
      length 4.527550
      axis 0.0 0.0 0.0 xyz
      dof rx ry rz
   end
   begin
      id 9
      name LeftShoulder
      direction 1.000000 0.000000 0.000000
      length 8.219464
      axis 0.0 0.0 -90.0 xyz
      dof rx ry rz
   end
   begin
      id 10
      name LeftArm
      direction 1.000000 0.000000 0.000000
      length 11.094937
      axis 0.0 0.0 -90.0 xyz
      dof rx ry rz
   end
   begin
      id 11
      name LeftForeArm
      direction 1.000000 0.000000 0.000000
      length 9.103875
      axis 0.0 0.0 -90.0 xyz
      dof ry rz rx
   end
   begin
      id 12
      name LeftHand
      direction 0.000000 0.000000 0.000000
      length 0.000000
      axis 0.0 0.0 -90.0 xyz
      dof rx ry rz
   end
   begin
      id 13
      name LeftHand_dum1
      direction 0.000000 0.000000 0.000000
      length 0.000000
      axis 0.0 0.0 -90.0 xyz
   end
   begin
      id 14
      name LeftHand_dum2
      direction 1.000000 0.000000 0.000000
      length 3.937000
      axis 0.0 0.0 -90.0 xyz
   end
   begin
      id 15
      name LeftHandThumb1
      direction 0.000000 0.000000 1.000000
      length 3.937000
      axis 0.0 0.0 -90.0 xyz
      dof rx rz ry
   end
   begin
      id 16
      name RightShoulder
      direction -1.000000 0.000000 0.000000
      length 8.219464
      axis 0.0 0.0 90.0 xyz
      dof rx ry rz
   end
   begin
      id 17
      name RightArm
      direction -1.000000 0.000000 0.000000
      length 11.094937
      axis 0.0 0.0 90.0 xyz
      dof rx ry rz
   end
   begin
      id 18
      name RightForeArm
      direction -1.000000 0.000000 0.000000
      length 9.103875
      axis 0.0 0.0 90.0 xyz
      dof ry rz rx
   end
   begin
      id 19
      name RightHand
      direction 0.000000 0.000000 0.000000
      length 0.000000
      axis 0.0 0.0 90.0 xyz
      dof rx ry rz
   end
   begin
      id 20
      name RightHand_dum1
      direction 0.000000 0.000000 0.000000
      length 0.000000
      axis 0.0 0.0 90.0 xyz
   end
   begin
      id 21
      name RightHand_dum2
      direction -1.000000 0.000000 0.000000
      length 3.937000
      axis 0.0 0.0 90.0 xyz
   end
   begin
      id 22
      name RightHandThumb1
      direction 0.000000 0.000000 1.000000
      length 3.937000
      axis 0.0 0.0 90.0 xyz
      dof rx rz ry
   end
   begin
      id 23
      name LeftUpLeg
      direction 0.000000 -1.000000 0.000000
      length 16.181467
      axis 0.0 0.0 0.0 xyz
      dof rx ry rz
   end
   begin
      id 24
      name LeftLeg
      direction 0.000000 -1.000000 0.000000
      length 16.501392
      axis 0.0 0.0 0.0 xyz
      dof rx ry rz
   end
   begin
      id 25
      name LeftFoot
      direction 0.000000 -0.258819 0.965926
      length 6.408245
      axis 15.0 0.0 0.0 xyz
      dof rx ry rz
   end
   begin
      id 26
      name LeftToeBase
      direction 0.000000 0.000000 1.000000
      length 2.952750
      axis 0.0 0.0 0.0 xyz
      dof rx ry rz
   end
   begin
      id 27
      name RightUpLeg
      direction 0.000000 -1.000000 0.000000
      length 16.181467
      axis 0.0 0.0 0.0 xyz
      dof rx ry rz
   end
   begin
      id 28
      name RightLeg
      direction 0.000000 -1.000000 0.000000
      length 16.501392
      axis 0.0 0.0 0.0 xyz
      dof rx ry rz
   end
   begin
      id 29
      name RightFoot
      direction 0.000000 -0.258819 0.965926
      length 6.408245
      axis 15.0 0.0 0.0 xyz
      dof rx ry rz
   end
   begin
      id 30
      name RightToeBase
      direction 0.000000 0.000000 1.000000
      length 2.952750
      axis 0.0 0.0 0.0 xyz
      dof rx ry rz
   end
:hierarchy
   begin
      root Spine_dum LeftUpLeg_dum RightUpLeg_dum
      Spine_dum Spine
      LeftUpLeg_dum LeftUpLeg
      RightUpLeg_dum RightUpLeg
      Spine Spine_dum1 Spine_dum2 Spine_dum3
      Spine_dum1 Head
      Spine_dum2 LeftShoulder
      Spine_dum3 RightShoulder
      LeftShoulder LeftArm
      LeftArm LeftForeArm
      LeftForeArm LeftHand
      LeftHand LeftHand_dum1 LeftHand_dum2
      LeftHand_dum1 LeftHandThumb1
      RightShoulder RightArm
      RightArm RightForeArm
      RightForeArm RightHand
      RightHand RightHand_dum1 RightHand_dum2
      RightHand_dum1 RightHandThumb1
      LeftUpLeg LeftLeg
      LeftLeg LeftFoot
      LeftFoot LeftToeBase
      RightUpLeg RightLeg
      RightLeg RightFoot
      RightFoot RightToeBase
   end

# File created by Blade
# Date/Time:  Wed Apr 08 17:04:22 2015
# Frame Rate: 120.000 fps
#------------------------------------------------------
:FULLY-SPECIFIED
:DEGREES
876
root 3.293919 35.855980 4.355409 -147.945960 -75.901141 175.548280
Spine -27.720124 -15.132881 -1.905971
Head 51.999530 -14.939628 -13.988178
LeftShoulder 17.189513 -2.970773 30.358896
LeftArm 109.202555 42.415742 -35.023052
LeftForeArm -0.905321 0.000000 92.002299
LeftHand -8.079199 -0.000000 -18.341423
LeftHandThumb1 -26.253704 0.000000 33.147579
RightShoulder -39.868698 -75.575099 11.337268
RightArm 52.803366 -42.345496 25.697224
RightForeArm 5.136927 0.000000 67.630914
RightHand -1.892522 -0.000000 36.369847
RightHandThumb1 -24.326973 -0.000000 -32.862282
LeftUpLeg -30.171897 12.423904 -5.181178
LeftLeg 19.647649 -0.000000 -0.000000
LeftFoot -19.673358 12.528139 -16.285437
LeftToeBase 8.851675 -0.000000 -0.000000
RightUpLeg -34.677848 -3.374016 -11.206219
RightLeg 17.335479 -0.000000 -0.000000
RightFoot -10.415481 4.751563 19.525307
RightToeBase 13.166873 -0.000000 -0.000000
877
root 3.291261 35.854871 4.366115 -147.885974 -75.851818 175.486912
Spine -27.766409 -15.089511 -1.869163
Head 51.967290 -15.044115 -14.064232
LeftShoulder 17.158931 -2.971660 30.381387
LeftArm 109.214126 42.401626 -35.039671
LeftForeArm -0.908302 -0.000000 92.009148
LeftHand -8.064068 0.000000 -18.240215
LeftHandThumb1 -26.253704 0.000000 33.147579
RightShoulder -39.602362 -75.554595 11.021647
RightArm 52.479706 -42.069378 25.958560
RightForeArm 6.573766 -0.000000 68.681570
RightHand -2.063853 -0.000000 36.554306
RightHandThumb1 -24.326973 -0.000000 -32.862282
LeftUpLeg -30.153380 12.420895 -5.223623
LeftLeg 19.623817 -0.000000 -0.000000
LeftFoot -19.689951 12.549180 -16.294471
LeftToeBase 8.866942 -0.000000 -0.000000
RightUpLeg -34.690826 -3.391552 -11.242638
RightLeg 17.338217 -0.000000 -0.000000
RightFoot -10.397854 4.796367 19.524971
RightToeBase 13.170732 -0.000000 -0.000000
878
root 3.289619 35.854312 4.377406 -147.764980 -75.817413 175.390616
Spine -27.844999 -15.045760 -1.827716
Head 51.938059 -15.164655 -14.141396
LeftShoulder 17.150896 -2.999422 30.381086
LeftArm 109.198043 42.407493 -35.082003
LeftForeArm -0.826672 -0.000000 92.019061
LeftHand -8.070489 -0.000000 -18.124857
LeftHandThumb1 -26.253704 0.000000 33.147579
RightShoulder -39.203694 -75.512378 10.583019
RightArm 52.021108 -41.823298 26.304272
RightForeArm 7.730507 -0.000000 69.876800
RightHand -2.172410 0.000000 36.661867
RightHandThumb1 -24.326973 -0.000000 -32.862282
LeftUpLeg -30.173250 12.397475 -5.273334
LeftLeg 19.617709 -0.000000 -0.000000
LeftFoot -19.702377 12.571822 -16.306068
LeftToeBase 8.879052 -0.000000 -0.000000
RightUpLeg -34.736766 -3.449241 -11.268059
RightLeg 17.357603 -0.000000 -0.000000
RightFoot -10.375981 4.851709 19.516679
RightToeBase 13.186704 -0.000000 -0.000000
879
root 3.286744 35.854306 4.388659 -147.666874 -75.790540 175.320886
Spine -27.935019 -15.007448 -1.754594
Head 51.895207 -15.240805 -14.284729
LeftShoulder 17.124104 -3.010703 30.364672
LeftArm 109.175352 42.411096 -35.126156
LeftForeArm -0.740454 0.000000 92.047101
LeftHand -8.112002 -0.000000 -18.031048
LeftHandThumb1 -26.253704 0.000000 33.147579
RightShoulder -38.969150 -75.514076 10.279718
RightArm 51.593411 -41.516795 26.616257
RightForeArm 8.700606 -0.000000 71.122054
RightHand -2.162040 -0.000000 36.771240
RightHandThumb1 -24.326973 -0.000000 -32.862282
LeftUpLeg -30.201216 12.387357 -5.321156
LeftLeg 19.618088 -0.000000 -0.000000
LeftFoot -19.707710 12.584162 -16.308440
LeftToeBase 8.877846 -0.000000 -0.000000
RightUpLeg -34.770180 -3.479859 -11.296135
RightLeg 17.355504 -0.000000 -0.000000
RightFoot -10.357537 4.874694 19.511500
RightToeBase 13.190100 -0.000000 -0.000000
880
root 3.285131 35.854341 4.399416 -147.512510 -75.787331 175.207789
Spine -28.043832 -14.974873 -1.673986
Head 51.855574 -15.302486 -14.459195
LeftShoulder 17.097622 -3.001132 30.348047
LeftArm 109.168997 42.405254 -35.165375
LeftForeArm -0.674951 -0.000000 92.056987
LeftHand -8.083853 -0.000000 -17.974346
LeftHandThumb1 -26.253704 0.000000 33.147579
RightShoulder -38.701058 -75.519287 9.905444
RightArm 51.154542 -41.210638 26.971164
RightForeArm 9.660173 0.000000 72.369244
RightHand -2.323973 -0.000000 36.886862
RightHandThumb1 -24.326973 -0.000000 -32.862282
LeftUpLeg -30.248773 12.360127 -5.369617
LeftLeg 19.620922 -0.000000 -0.000000
LeftFoot -19.710919 12.590534 -16.279065
LeftToeBase 8.926983 -0.000000 -0.000000
RightUpLeg -34.823057 -3.528642 -11.322695
RightLeg 17.374495 -0.000000 -0.000000
RightFoot -10.355035 4.879781 19.478872
RightToeBase 13.190899 -0.000000 -0.000000
881
root 3.283113 35.854640 4.408931 -147.335336 -75.821052 175.094720
Spine -28.193883 -14.996033 -1.532283
Head 51.803601 -15.304602 -14.651045
LeftShoulder 17.035705 -2.995410 30.314795
LeftArm 109.141244 42.421077 -35.214453
LeftForeArm -0.676329 -0.000000 92.081552
LeftHand -8.096891 -0.000000 -17.901402
LeftHandThumb1 -26.253704 0.000000 33.147579
RightShoulder -38.256916 -75.535424 9.326091
RightArm 50.705494 -40.910880 27.368907
RightForeArm 10.614312 -0.000000 73.559505
RightHand -2.361742 -0.000000 36.997768
RightHandThumb1 -24.326973 -0.000000 -32.862282
LeftUpLeg -30.326764 12.315756 -5.408135
LeftLeg 19.638100 -0.000000 -0.000000
LeftFoot -19.696640 12.567334 -16.315575
LeftToeBase 8.862949 -0.000000 -0.000000
RightUpLeg -34.880478 -3.578682 -11.342579
RightLeg 17.382761 -0.000000 -0.000000
RightFoot -10.361742 4.855140 19.494763
RightToeBase 13.204599 -0.000000 -0.000000
882
root 3.280141 35.854963 4.417326 -147.160126 -75.858739 174.964819
Spine -28.320477 -14.998780 -1.417774
Head 51.747721 -15.336038 -14.826343
LeftShoulder 16.973212 -3.006952 30.301747
LeftArm 109.036154 42.466563 -35.378425
LeftForeArm -1.086600 -0.000000 92.004718
LeftHand -7.771458 0.000000 -18.164584
LeftHandThumb1 -26.253704 0.000000 33.147579
RightShoulder -37.862149 -75.552397 8.793127
RightArm 50.235580 -40.597763 27.822376
RightForeArm 11.705977 -0.000000 74.646548
RightHand -2.432605 -0.000000 37.106814
RightHandThumb1 -24.326973 -0.000000 -32.862282
LeftUpLeg -30.386835 12.277833 -5.446073
LeftLeg 19.655832 -0.000000 -0.000000
LeftFoot -19.684030 12.549953 -16.306858
LeftToeBase 8.852919 -0.000000 -0.000000
RightUpLeg -34.921789 -3.623058 -11.363539
RightLeg 17.404989 -0.000000 -0.000000
RightFoot -10.397213 4.815287 19.466646
RightToeBase 13.231054 -0.000000 -0.000000
883
root 3.275961 35.854792 4.424947 -146.976727 -75.918862 174.801135
Spine -28.415485 -15.022618 -1.311662
Head 51.707624 -15.366329 -14.999097
LeftShoulder 16.923739 -3.042949 30.270960
LeftArm 108.965536 42.522494 -35.473664
LeftForeArm -1.221955 -0.000000 91.976900
LeftHand -7.672130 0.000000 -18.192553
LeftHandThumb1 -26.253704 0.000000 33.147579
RightShoulder -37.487673 -75.572755 8.291417
RightArm 49.776313 -40.259509 28.273815
RightForeArm 12.966028 -0.000000 75.627329
RightHand -2.494136 -0.000000 37.131536
RightHandThumb1 -24.326973 -0.000000 -32.862282
LeftUpLeg -30.421810 12.225074 -5.475006
LeftLeg 19.676698 -0.000000 -0.000000
LeftFoot -19.669821 12.525401 -16.298494
LeftToeBase 8.848488 -0.000000 -0.000000
RightUpLeg -34.927768 -3.668696 -11.388279
RightLeg 17.423838 -0.000000 -0.000000
RightFoot -10.429919 4.775172 19.468911
RightToeBase 13.195025 -0.000000 -0.000000
